HIERARCHY
ROOT root
{
  OFFSET 0 10 0
  CHANNELS 6 Xposition Yposition Zposition Zrotation Xrotation Yrotation
  JOINT foot_0_0
  {
    OFFSET 0 -7.5 0
    CHANNELS 3 Zrotation Xrotation Yrotation
    JOINT foot_0_1
    {
      OFFSET 3.62407 -2.5 3.82084
      CHANNELS 3 Zrotation Xrotation Yrotation
      End Site
      {
        OFFSET 0.45695 0 5.01038
      }
    }
  }
  JOINT foot_1_0
  {
    OFFSET 0 -7.5 0
    CHANNELS 3 Zrotation Xrotation Yrotation
    JOINT foot_1_1
    {
      OFFSET -3.62407 -2.5 3.82084
      CHANNELS 3 Zrotation Xrotation Yrotation
      End Site
      {
        OFFSET -0.45695 0 5.01038
      }
    }
  }
  JOINT foot_2_0
  {
    OFFSET 0 -7.5 0
    CHANNELS 3 Zrotation Xrotation Yrotation
    JOINT foot_2_1
    {
      OFFSET 0 -2.5 -2.5
      CHANNELS 3 Zrotation Xrotation Yrotation
      End Site
      {
        OFFSET 0 0 -2.5
      }
    }
  }
}
MOTION
Frames:	140
Frame Time:	0.0416667
0 10 0 0 0 -0 0 0 -0 0 0 -0 0 0 -0 0 0 -0 0 0 -0 0 0 -0 
0 10 0 0 0 -0 0 0 -0 0 0.00339758 -0 0 0 -0 0 0.00339758 -0 0 0 -0 -0 -0.00339758 -0 
0 10 0 0 0 -0 0 0 -0 0 0.0135447 -0 0 0 -0 0 0.0135447 -0 0 0 -0 -0 -0.0135447 -0 
0 10 0 0 0 -0 0 0 -0 0 0.0303727 -0 0 0 -0 0 0.0303727 -0 0 0 -0 -0 -0.0303727 -0 
0 10 0 0 0 -0 0 0 -0 0 0.0538132 -0 0 0 -0 0 0.0538132 -0 0 0 -0 -0 -0.0538132 -0 
0 10 0 0 0 -0 0 0 -0 0 0.0837976 -0 0 0 -0 0 0.0837976 -0 0 0 -0 -0 -0.0837976 -0 
0 10 0 0 0 -0 0 0 -0 0 0.120257 -0 0 0 -0 0 0.120257 -0 0 0 -0 -0 -0.120257 -0 
0 10 0 0 0 -0 0 0 -0 0 0.163124 -0 0 0 -0 0 0.163124 -0 0 0 -0 -0 -0.163124 -0 
0 10 0 0 0 -0 0 0 -0 0 0.212329 -0 0 0 -0 0 0.212329 -0 0 0 -0 -0 -0.212329 -0 
0 10 0 0 0 -0 0 0 -0 0 0.267804 -0 0 0 -0 0 0.267804 -0 0 0 -0 -0 -0.267804 -0 
0 10 0 0 0 -0 0 0 -0 0 0.32948 -0 0 0 -0 0 0.32948 -0 0 0 -0 -0 -0.32948 -0 
0 10 0 0 0 -0 0 0 -0 0 0.397289 -0 0 0 -0 0 0.397289 -0 0 0 -0 -0 -0.397289 -0 
0 10 0 0 0 -0 0 0 -0 0 0.471162 -0 0 0 -0 0 0.471162 -0 0 0 -0 -0 -0.471162 -0 
0 10 0 0 0 -0 0 0 -0 0 0.551031 -0 0 0 -0 0 0.551031 -0 0 0 -0 -0 -0.551031 -0 
0 10 0 0 0 -0 0 0 -0 0 0.636827 -0 0 0 -0 0 0.636827 -0 0 0 -0 -0 -0.636827 -0 
0 10 0 0 0 -0 0 0 -0 0 0.728482 -0 0 0 -0 0 0.728482 -0 0 0 -0 -0 -0.728482 -0 
0 10 0 0 0 -0 0 0 -0 0 0.825927 -0 0 0 -0 0 0.825927 -0 0 0 -0 -0 -0.825927 -0 
0 10 0 0 0 -0 0 0 -0 0 0.929094 -0 0 0 -0 0 0.929094 -0 0 0 -0 -0 -0.929094 -0 
0 10 0 0 0 -0 0 0 -0 0 1.03791 -0 0 0 -0 0 1.03791 -0 0 0 -0 -0 -1.03791 -0 
0 10 0 0 0 -0 0 0 -0 0 1.15232 -0 0 0 -0 0 1.15232 -0 0 0 -0 -0 -1.15232 -0 
0 10 0 0 0 -0 0 0 -0 0 1.27224 -0 0 0 -0 0 1.27224 -0 0 0 -0 -0 -1.27224 -0 
0 10 0 0 0 -0 0 0 -0 0 1.39761 -0 0 0 -0 0 1.39761 -0 0 0 -0 -0 -1.39761 -0 
0 10 0 0 0 -0 0 0 -0 0 1.52835 -0 0 0 -0 0 1.52835 -0 0 0 -0 -0 -1.52835 -0 
0 10 0 0 0 -0 0 0 -0 0 1.66441 -0 0 0 -0 0 1.66441 -0 0 0 -0 -0 -1.66441 -0 
0 10 0 0 0 -0 0 0 -0 0 1.80571 -0 0 0 -0 0 1.80571 -0 0 0 -0 -0 -1.80571 -0 
0 10 0 0 0 -0 0 0 -0 0 1.95218 -0 0 0 -0 0 1.95218 -0 0 0 -0 -0 -1.95218 -0 
0 10 0 0 0 -0 0 0 -0 0 2.10376 -0 0 0 -0 0 2.10376 -0 0 0 -0 -0 -2.10376 -0 
0 10 0 0 0 -0 0 0 -0 0 2.26038 -0 0 0 -0 0 2.26038 -0 0 0 -0 -0 -2.26038 -0 
0 10 0 0 0 -0 0 0 -0 0 2.42196 -0 0 0 -0 0 2.42196 -0 0 0 -0 -0 -2.42196 -0 
0 10 0 0 0 -0 0 0 -0 0 2.58844 -0 0 0 -0 0 2.58844 -0 0 0 -0 -0 -2.58844 -0 
0 10 0 0 0 -0 0 0 -0 0 2.75975 -0 0 0 -0 0 2.75975 -0 0 0 -0 -0 -2.75975 -0 
0 10 0 0 0 -0 0 0 -0 0 2.93583 -0 0 0 -0 0 2.93583 -0 0 0 -0 -0 -2.93583 -0 
0 10 0 0 0 -0 0 0 -0 0 3.1166 -0 0 0 -0 0 3.1166 -0 0 0 -0 -0 -3.1166 -0 
0 10 0 0 0 -0 0 0 -0 0 3.30199 -0 0 0 -0 0 3.30199 -0 0 0 -0 -0 -3.30199 -0 
0 10 0 0 0 -0 0 0 -0 0 3.49194 -0 0 0 -0 0 3.49194 -0 0 0 -0 -0 -3.49194 -0 
0 10 0 0 0 -0 0 0 -0 0 3.68638 -0 0 0 -0 0 3.68638 -0 0 0 -0 -0 -3.68638 -0 
0 10 0 0 0 -0 0 0 -0 0 3.88524 -0 0 0 -0 0 3.88524 -0 0 0 -0 -0 -3.88524 -0 
0 10 0 0 0 -0 0 0 -0 0 4.08845 -0 0 0 -0 0 4.08845 -0 0 0 -0 -0 -4.08845 -0 
0 10 0 0 0 -0 0 0 -0 0 4.29594 -0 0 0 -0 0 4.29594 -0 0 0 -0 -0 -4.29594 -0 
0 10 0 0 0 -0 0 0 -0 0 4.50765 -0 0 0 -0 0 4.50765 -0 0 0 -0 -0 -4.50765 -0 
0 10 0 0 0 -0 0 0 -0 0 4.7235 -0 0 0 -0 0 4.7235 -0 0 0 -0 -0 -4.7235 -0 
0 10 0 0 0 -0 0 0 -0 0 4.94343 -0 0 0 -0 0 4.94343 -0 0 0 -0 -0 -4.94343 -0 
0 10 0 0 0 -0 0 0 -0 0 5.16737 -0 0 0 -0 0 5.16737 -0 0 0 -0 -0 -5.16737 -0 
0 10 0 0 0 -0 0 0 -0 0 5.39524 -0 0 0 -0 0 5.39524 -0 0 0 -0 -0 -5.39524 -0 
0 10 0 0 0 -0 0 0 -0 0 5.62699 -0 0 0 -0 0 5.62699 -0 0 0 -0 -0 -5.62699 -0 
0 10 0 0 0 -0 0 0 -0 0 5.86255 -0 0 0 -0 0 5.86255 -0 0 0 -0 -0 -5.86255 -0 
0 10 0 0 0 -0 0 0 -0 0 6.10183 -0 0 0 -0 0 6.10183 -0 0 0 -0 -0 -6.10183 -0 
0 10 0 0 0 -0 0 0 -0 0 6.34479 -0 0 0 -0 0 6.34479 -0 0 0 -0 -0 -6.34479 -0 
0 10 0 0 0 -0 0 0 -0 0 6.59134 -0 0 0 -0 0 6.59134 -0 0 0 -0 -0 -6.59134 -0 
0 10 0 0 0 -0 0 0 -0 0 6.84142 -0 0 0 -0 0 6.84142 -0 0 0 -0 -0 -6.84142 -0 
0 10 0 0 0 -0 0 0 -0 0 7.09496 -0 0 0 -0 0 7.09496 -0 0 0 -0 -0 -7.09496 -0 
0 10 0 0 0 -0 0 0 -0 0 7.35189 -0 0 0 -0 0 7.35189 -0 0 0 -0 -0 -7.35189 -0 
0 10 0 0 0 -0 0 0 -0 0 7.61214 -0 0 0 -0 0 7.61214 -0 0 0 -0 -0 -7.61214 -0 
0 10 0 0 0 -0 0 0 -0 0 7.87565 -0 0 0 -0 0 7.87565 -0 0 0 -0 -0 -7.87565 -0 
0 10 0 0 0 -0 0 0 -0 0 8.14235 -0 0 0 -0 0 8.14235 -0 0 0 -0 -0 -8.14235 -0 
0 10 0 0 0 -0 0 0 -0 0 8.41216 -0 0 0 -0 0 8.41216 -0 0 0 -0 -0 -8.41216 -0 
0 10 0 0 0 -0 0 0 -0 0 8.68503 -0 0 0 -0 0 8.68503 -0 0 0 -0 -0 -8.68503 -0 
0 10 0 0 0 -0 0 0 -0 0 8.96087 -0 0 0 -0 0 8.96087 -0 0 0 -0 -0 -8.96087 -0 
0 10 0 0 0 -0 0 0 -0 0 9.23962 -0 0 0 -0 0 9.23962 -0 0 0 -0 -0 -9.23962 -0 
0 10 0 0 0 -0 0 0 -0 0 9.52122 -0 0 0 -0 0 9.52122 -0 0 0 -0 -0 -9.52122 -0 
0 10 0 0 0 -0 0 0 -0 0 9.8056 -0 0 0 -0 0 9.8056 -0 0 0 -0 -0 -9.8056 -0 
0 10 0 0 0 -0 0 0 -0 0 10.0927 -0 0 0 -0 0 10.0927 -0 0 0 -0 -0 -10.0927 -0 
0 10 0 0 0 -0 0 0 -0 0 10.3824 -0 0 0 -0 0 10.3824 -0 0 0 -0 -0 -10.3824 -0 
0 10 0 0 0 -0 0 0 -0 0 10.6747 -0 0 0 -0 0 10.6747 -0 0 0 -0 -0 -10.6747 -0 
0 10 0 0 0 -0 0 0 -0 0 10.9695 -0 0 0 -0 0 10.9695 -0 0 0 -0 -0 -10.9695 -0 
0 10 0 0 0 -0 0 0 -0 0 11.2667 -0 0 0 -0 0 11.2667 -0 0 0 -0 -0 -11.2667 -0 
0 10 0 0 0 -0 0 0 -0 0 11.5663 -0 0 0 -0 0 11.5663 -0 0 0 -0 -0 -11.5663 -0 
0 10 0 0 0 -0 0 0 -0 0 11.8682 -0 0 0 -0 0 11.8682 -0 0 0 -0 -0 -11.8682 -0 
0 10 0 0 0 -0 0 0 -0 0 12.1723 -0 0 0 -0 0 12.1723 -0 0 0 -0 -0 -12.1723 -0 
0 10 0 0 0 -0 0 0 -0 0 12.4786 -0 0 0 -0 0 12.4786 -0 0 0 -0 -0 -12.4786 -0 
0 10 0 0 0 -0 0 0 -0 0 12.7869 -0 0 0 -0 0 12.7869 -0 0 0 -0 -0 -12.7869 -0 
0 10 0 0 0 -0 0 0 -0 0 13.0973 -0 0 0 -0 0 13.0973 -0 0 0 -0 -0 -13.0973 -0 
0 10 0 0 0 -0 0 0 -0 0 13.4096 -0 0 0 -0 0 13.4096 -0 0 0 -0 -0 -13.4096 -0 
0 10 0 0 0 -0 0 0 -0 0 13.7238 -0 0 0 -0 0 13.7238 -0 0 0 -0 -0 -13.7238 -0 
0 10 0 0 0 -0 0 0 -0 0 14.0399 -0 0 0 -0 0 14.0399 -0 0 0 -0 -0 -14.0399 -0 
0 10 0 0 0 -0 0 0 -0 0 14.3576 -0 0 0 -0 0 14.3576 -0 0 0 -0 -0 -14.3576 -0 
0 10 0 0 0 -0 0 0 -0 0 14.6771 -0 0 0 -0 0 14.6771 -0 0 0 -0 -0 -14.6771 -0 
0 10 0 0 0 -0 0 0 -0 0 14.9982 -0 0 0 -0 0 14.9982 -0 0 0 -0 -0 -14.9982 -0 
0 10 0 0 0 -0 0 0 -0 0 15.3208 -0 0 0 -0 0 15.3208 -0 0 0 -0 -0 -15.3208 -0 
0 10 0 0 0 -0 0 0 -0 0 15.6449 -0 0 0 -0 0 15.6449 -0 0 0 -0 -0 -15.6449 -0 
0 10 0 0 0 -0 0 0 -0 0 15.9704 -0 0 0 -0 0 15.9704 -0 0 0 -0 -0 -15.9704 -0 
0 10 0 0 0 -0 0 0 -0 0 16.2972 -0 0 0 -0 0 16.2972 -0 0 0 -0 -0 -16.2972 -0 
0 10 0 0 0 -0 0 0 -0 0 16.6253 -0 0 0 -0 0 16.6253 -0 0 0 -0 -0 -16.6253 -0 
0 10 0 0 0 -0 0 0 -0 0 16.9546 -0 0 0 -0 0 16.9546 -0 0 0 -0 -0 -16.9546 -0 
0 10 0 0 0 -0 0 0 -0 0 17.285 -0 0 0 -0 0 17.285 -0 0 0 -0 -0 -17.285 -0 
0 10 0 0 0 -0 0 0 -0 0 17.6165 -0 0 0 -0 0 17.6165 -0 0 0 -0 -0 -17.6165 -0 
0 10 0 0 0 -0 0 0 -0 0 17.949 -0 0 0 -0 0 17.949 -0 0 0 -0 -0 -17.949 -0 
0 10 0 0 0 -0 0 0 -0 0 18.2824 -0 0 0 -0 0 18.2824 -0 0 0 -0 -0 -18.2824 -0 
0 10 0 0 0 -0 0 0 -0 0 18.6166 -0 0 0 -0 0 18.6166 -0 0 0 -0 -0 -18.6166 -0 
0 10 0 0 0 -0 0 0 -0 0 18.9517 -0 0 0 -0 0 18.9517 -0 0 0 -0 -0 -18.9517 -0 
0 10 0 0 0 -0 0 0 -0 0 19.2874 -0 0 0 -0 0 19.2874 -0 0 0 -0 -0 -19.2874 -0 
0 10 0 0 0 -0 0 0 -0 0 19.6238 -0 0 0 -0 0 19.6238 -0 0 0 -0 -0 -19.6238 -0 
0 10 0 0 0 -0 0 0 -0 0 19.9608 -0 0 0 -0 0 19.9608 -0 0 0 -0 -0 -19.9608 -0 
0 10 0 0 0 -0 0 0 -0 0 20.2984 -0 0 0 -0 0 20.2984 -0 0 0 -0 -0 -20.2984 -0 
0 10 0 0 0 -0 0 0 -0 0 20.6363 -0 0 0 -0 0 20.6363 -0 0 0 -0 -0 -20.6363 -0 
0 10 0 0 0 -0 0 0 -0 0 20.9747 -0 0 0 -0 0 20.9747 -0 0 0 -0 -0 -20.9747 -0 
0 10 0 0 0 -0 0 0 -0 0 21.3133 -0 0 0 -0 0 21.3133 -0 0 0 -0 -0 -21.3133 -0 
0 10 0 0 0 -0 0 0 -0 0 21.6522 -0 0 0 -0 0 21.6522 -0 0 0 -0 -0 -21.6522 -0 
0 10 0 0 0 -0 0 0 -0 0 21.9912 -0 0 0 -0 0 21.9912 -0 0 0 -0 -0 -21.9912 -0 
0 10 0 0 0 -0 0 0 -0 0 22.3304 -0 0 0 -0 0 22.3304 -0 0 0 -0 -0 -22.3304 -0 
0 10 0 0 0 -0 0 0 -0 0 22.6696 -0 0 0 -0 0 22.6696 -0 0 0 -0 -0 -22.6696 -0 
0 10 0 0 0 -0 0 0 -0 0 23.0088 -0 0 0 -0 0 23.0088 -0 0 0 -0 -0 -23.0088 -0 
0 10 0 0 0 -0 0 0 -0 0 23.3478 -0 0 0 -0 0 23.3478 -0 0 0 -0 -0 -23.3478 -0 
0 10 0 0 0 -0 0 0 -0 0 23.6867 -0 0 0 -0 0 23.6867 -0 0 0 -0 -0 -23.6867 -0 
0 10 0 0 0 -0 0 0 -0 0 24.0253 -0 0 0 -0 0 24.0253 -0 0 0 -0 -0 -24.0253 -0 
0 10 0 0 0 -0 0 0 -0 0 24.3637 -0 0 0 -0 0 24.3637 -0 0 0 -0 -0 -24.3637 -0 
0 10 0 0 0 -0 0 0 -0 0 24.7016 -0 0 0 -0 0 24.7016 -0 0 0 -0 -0 -24.7016 -0 
0 10 0 0 0 -0 0 0 -0 0 25.0392 -0 0 0 -0 0 25.0392 -0 0 0 -0 -0 -25.0392 -0 
0 10 0 0 0 -0 0 0 -0 0 25.3762 -0 0 0 -0 0 25.3762 -0 0 0 -0 -0 -25.3762 -0 
0 10 0 0 0 -0 0 0 -0 0 25.7126 -0 0 0 -0 0 25.7126 -0 0 0 -0 -0 -25.7126 -0 
0 10 0 0 0 -0 0 0 -0 0 26.0483 -0 0 0 -0 0 26.0483 -0 0 0 -0 -0 -26.0483 -0 
0 10 0 0 0 -0 0 0 -0 0 26.3834 -0 0 0 -0 0 26.3834 -0 0 0 -0 -0 -26.3834 -0 
0 10 0 0 0 -0 0 0 -0 0 26.7176 -0 0 0 -0 0 26.7176 -0 0 0 -0 -0 -26.7176 -0 
0 10 0 0 0 -0 0 0 -0 0 27.051 -0 0 0 -0 0 27.051 -0 0 0 -0 -0 -27.051 -0 
0 10 0 0 0 -0 0 0 -0 0 27.3835 -0 0 0 -0 0 27.3835 -0 0 0 -0 -0 -27.3835 -0 
0 10 0 0 0 -0 0 0 -0 0 27.715 -0 0 0 -0 0 27.715 -0 0 0 -0 -0 -27.715 -0 
0 10 0 0 0 -0 0 0 -0 0 28.0454 -0 0 0 -0 0 28.0454 -0 0 0 -0 -0 -28.0454 -0 
0 10 0 0 0 -0 0 0 -0 0 28.3747 -0 0 0 -0 0 28.3747 -0 0 0 -0 -0 -28.3747 -0 
0 10 0 0 0 -0 0 0 -0 0 28.7028 -0 0 0 -0 0 28.7028 -0 0 0 -0 -0 -28.7028 -0 
0 10 0 0 0 -0 0 0 -0 0 29.0296 -0 0 0 -0 0 29.0296 -0 0 0 -0 -0 -29.0296 -0 
0 10 0 0 0 -0 0 0 -0 0 29.3551 -0 0 0 -0 0 29.3551 -0 0 0 -0 -0 -29.3551 -0 
0 10 0 0 0 -0 0 0 -0 0 29.6792 -0 0 0 -0 0 29.6792 -0 0 0 -0 -0 -29.6792 -0 
0 10 0 0 0 -0 0 0 -0 0 30.0018 -0 0 0 -0 0 30.0018 -0 0 0 -0 -0 -30.0018 -0 
0 10 0 0 0 -0 0 0 -0 0 30.3229 -0 0 0 -0 0 30.3229 -0 0 0 -0 -0 -30.3229 -0 
0 10 0 0 0 -0 0 0 -0 0 30.6424 -0 0 0 -0 0 30.6424 -0 0 0 -0 -0 -30.6424 -0 
0 10 0 0 0 -0 0 0 -0 0 30.9601 -0 0 0 -0 0 30.9601 -0 0 0 -0 -0 -30.9601 -0 
0 10 0 0 0 -0 0 0 -0 0 31.2762 -0 0 0 -0 0 31.2762 -0 0 0 -0 -0 -31.2762 -0 
0 10 0 0 0 -0 0 0 -0 0 31.5904 -0 0 0 -0 0 31.5904 -0 0 0 -0 -0 -31.5904 -0 
0 10 0 0 0 -0 0 0 -0 0 31.9027 -0 0 0 -0 0 31.9027 -0 0 0 -0 -0 -31.9027 -0 
0 10 0 0 0 -0 0 0 -0 0 32.2131 -0 0 0 -0 0 32.2131 -0 0 0 -0 -0 -32.2131 -0 
0 10 0 0 0 -0 0 0 -0 0 32.5215 -0 0 0 -0 0 32.5215 -0 0 0 -0 -0 -32.5215 -0 
0 10 0 0 0 -0 0 0 -0 0 32.8277 -0 0 0 -0 0 32.8277 -0 0 0 -0 -0 -32.8277 -0 
0 10 0 0 0 -0 0 0 -0 0 33.1318 -0 0 0 -0 0 33.1318 -0 0 0 -0 -0 -33.1318 -0 
0 10 0 0 0 -0 0 0 -0 0 33.4337 -0 0 0 -0 0 33.4337 -0 0 0 -0 -0 -33.4337 -0 
0 10 0 0 0 -0 0 0 -0 0 33.7333 -0 0 0 -0 0 33.7333 -0 0 0 -0 -0 -33.7333 -0 
0 10 0 0 0 -0 0 0 -0 0 34.0305 -0 0 0 -0 0 34.0305 -0 0 0 -0 -0 -34.0305 -0 
0 10 0 0 0 -0 0 0 -0 0 34.3253 -0 0 0 -0 0 34.3253 -0 0 0 -0 -0 -34.3253 -0 
0 10 0 0 0 -0 0 0 -0 0 34.6176 -0 0 0 -0 0 34.6176 -0 0 0 -0 -0 -34.6176 -0 
0 10 0 0 0 -0 0 0 -0 0 34.9073 -0 0 0 -0 0 34.9073 -0 0 0 -0 -0 -34.9073 -0 
0 10 0 0 0 -0 0 0 -0 0 35.1944 -0 0 0 -0 0 35.1944 -0 0 0 -0 -0 -35.1944 -0 
